<?xml version="1.0" standalone="no"?>
<!DOCTYPE svg PUBLIC "-//W3C//DTD SVG 20010904//EN"
 "http://www.w3.org/TR/2001/REC-SVG-20010904/DTD/svg10.dtd">
<svg version="1.0" xmlns="http://www.w3.org/2000/svg"
 width="500.000000pt" height="500.000000pt" viewBox="0 0 500.000000 500.000000"
 preserveAspectRatio="xMidYMid meet">

<g transform="translate(0.000000,500.000000) scale(0.100000,-0.100000)"
fill="#000000" stroke="none">
<path d="M1302 4698 c-18 -18 -15 -43 8 -63 18 -17 21 -17 45 -1 40 27 28 76
-20 76 -12 0 -26 -5 -33 -12z"/>
<path d="M1767 4703 c-15 -14 -7 -63 12 -73 39 -20 82 22 61 60 -10 20 -58 28
-73 13z"/>
<path d="M2230 4691 c-15 -29 -13 -39 14 -56 31 -21 66 -5 66 28 0 46 -59 66
-80 28z"/>
<path d="M2700 4695 c-15 -19 -6 -61 16 -69 22 -8 64 20 64 42 0 39 -55 57
-80 27z"/>
<path d="M3161 4688 c-10 -28 -4 -45 19 -58 38 -20 80 22 60 60 -16 29 -68 27
-79 -2z"/>
<path d="M3632 4698 c-33 -33 16 -91 57 -68 39 20 21 80 -24 80 -12 0 -26 -5
-33 -12z"/>
<path d="M1300 4215 c-7 -8 -10 -25 -6 -39 11 -45 71 -45 82 0 8 30 -11 54
-41 54 -12 0 -28 -7 -35 -15z"/>
<path d="M1773 4223 c-7 -2 -13 -18 -13 -34 0 -22 7 -32 26 -41 23 -11 29 -10
45 11 23 28 23 35 3 55 -15 16 -37 19 -61 9z"/>
<path d="M2228 4205 c-10 -22 -9 -29 10 -47 18 -19 25 -20 47 -10 16 8 25 20
25 35 0 50 -62 66 -82 22z"/>
<path d="M2702 4218 c-32 -32 4 -87 48 -73 25 8 37 50 20 70 -15 18 -51 20
-68 3z"/>
<path d="M3174 4222 c-32 -22 -13 -82 26 -82 29 0 54 43 40 69 -11 21 -45 28
-66 13z"/>
<path d="M3628 4205 c-10 -22 -9 -29 10 -47 18 -19 25 -20 47 -10 16 8 25 20
25 35 0 50 -62 66 -82 22z"/>
<path d="M1302 3738 c-28 -28 -7 -78 33 -78 27 0 45 18 45 45 0 27 -18 45 -45
45 -12 0 -26 -5 -33 -12z"/>
<path d="M1766 3728 c-13 -19 -14 -25 -2 -43 7 -11 22 -21 34 -23 24 -4 53 33
44 57 -13 37 -53 42 -76 9z"/>
<path d="M2236 3734 c-9 -8 -16 -22 -16 -29 0 -7 7 -21 16 -29 30 -30 74 -13
74 29 0 42 -44 59 -74 29z"/>
<path d="M2702 3738 c-7 -7 -12 -21 -12 -33 0 -44 60 -63 80 -26 14 27 13 37
-6 55 -18 19 -45 21 -62 4z"/>
<path d="M3166 3728 c-13 -19 -14 -25 -2 -43 7 -11 24 -20 36 -20 12 0 29 9
36 20 12 18 11 24 -2 43 -8 12 -24 22 -34 22 -10 0 -26 -10 -34 -22z"/>
<path d="M3636 3734 c-9 -8 -16 -22 -16 -29 0 -7 7 -21 16 -29 30 -30 74 -13
74 29 0 42 -44 59 -74 29z"/>
<path d="M1308 3259 c-36 -21 -16 -79 27 -79 42 0 59 44 29 74 -18 18 -32 20
-56 5z"/>
<path d="M1766 3248 c-13 -19 -14 -25 -2 -43 19 -29 62 -32 76 -5 9 17 8 26
-5 46 -19 30 -49 31 -69 2z"/>
<path d="M2236 3254 c-19 -18 -20 -28 -6 -55 12 -21 50 -25 68 -7 18 18 14 56
-7 68 -27 14 -37 13 -55 -6z"/>
<path d="M2708 3259 c-21 -12 -24 -49 -6 -67 18 -18 56 -14 68 7 14 27 13 37
-6 55 -18 18 -32 20 -56 5z"/>
<path d="M3166 3248 c-25 -35 5 -75 48 -64 29 7 38 38 19 65 -18 27 -48 27
-67 -1z"/>
<path d="M3636 3254 c-19 -18 -20 -28 -6 -55 12 -21 50 -25 68 -7 18 18 14 56
-7 68 -27 14 -37 13 -55 -6z"/>
<path d="M1318 2783 c-10 -3 -21 -16 -25 -30 -4 -20 -1 -31 17 -45 20 -16 25
-17 44 -5 41 28 12 91 -36 80z"/>
<path d="M1770 2770 c-15 -15 -17 -25 -11 -42 11 -30 60 -37 78 -12 17 24 17
30 -7 54 -25 25 -35 25 -60 0z"/>
<path d="M2242 2774 c-37 -26 -23 -74 23 -74 44 0 63 60 26 80 -25 13 -22 13
-49 -6z"/>
<path d="M2718 2783 c-23 -6 -34 -49 -18 -68 26 -32 86 -8 78 31 -4 21 -38 42
-60 37z"/>
<path d="M3176 2777 c-12 -9 -17 -23 -14 -42 2 -25 8 -31 33 -33 19 -3 33 2
42 14 17 24 17 30 -7 54 -24 24 -30 24 -54 7z"/>
<path d="M3641 2774 c-37 -26 -21 -74 25 -74 28 0 46 23 42 51 -4 30 -40 42
-67 23z"/>
<path d="M1302 2288 c-19 -19 -14 -45 10 -62 19 -13 25 -14 43 -2 25 16 31 42
15 61 -15 18 -52 19 -68 3z"/>
<path d="M1762 2283 c-12 -22 1 -58 22 -66 38 -15 75 28 56 63 -14 26 -65 27
-78 3z"/>
<path d="M2231 2281 c-16 -29 -14 -39 13 -56 36 -24 68 -5 64 38 -3 28 -7 32
-35 35 -23 2 -34 -2 -42 -17z"/>
<path d="M2700 2285 c-17 -20 -5 -61 19 -68 25 -6 61 19 61 42 0 38 -55 56
-80 26z"/>
<path d="M3161 2278 c-10 -28 -4 -45 19 -58 38 -20 80 22 60 60 -16 29 -68 27
-79 -2z"/>
<path d="M3632 2288 c-33 -33 16 -91 57 -68 39 20 21 80 -24 80 -12 0 -26 -5
-33 -12z"/>
<path d="M1300 1805 c-7 -8 -10 -25 -6 -39 11 -45 71 -45 82 0 8 30 -11 54
-41 54 -12 0 -28 -7 -35 -15z"/>
<path d="M1773 1813 c-7 -2 -13 -18 -13 -34 0 -22 7 -32 26 -41 23 -11 29 -10
45 11 23 28 23 35 3 55 -15 16 -37 19 -61 9z"/>
<path d="M2228 1795 c-10 -22 -9 -29 10 -47 18 -19 25 -20 47 -10 16 8 25 20
25 35 0 50 -62 66 -82 22z"/>
<path d="M2702 1808 c-32 -32 4 -87 48 -73 25 8 37 50 20 70 -15 18 -51 20
-68 3z"/>
<path d="M3174 1812 c-32 -22 -13 -82 26 -82 29 0 54 43 40 69 -11 21 -45 28
-66 13z"/>
<path d="M3628 1795 c-10 -22 -9 -29 10 -47 18 -19 25 -20 47 -10 16 8 25 20
25 35 0 50 -62 66 -82 22z"/>
<path d="M1302 1328 c-7 -7 -12 -21 -12 -33 0 -12 5 -26 12 -33 7 -7 21 -12
33 -12 12 0 26 5 33 12 7 7 12 21 12 33 0 12 -5 26 -12 33 -7 7 -21 12 -33 12
-12 0 -26 -5 -33 -12z"/>
<path d="M1766 1318 c-13 -19 -14 -25 -2 -43 18 -27 43 -31 67 -9 13 12 17 24
13 38 -13 41 -54 48 -78 14z"/>
<path d="M2236 1324 c-9 -8 -16 -22 -16 -29 0 -7 7 -21 16 -29 30 -30 74 -13
74 29 0 42 -44 59 -74 29z"/>
<path d="M2702 1328 c-27 -27 -7 -78 29 -78 21 0 49 26 49 45 0 35 -53 58 -78
33z"/>
<path d="M3166 1318 c-13 -19 -14 -25 -2 -43 7 -11 24 -20 36 -20 12 0 29 9
36 20 12 18 11 24 -2 43 -8 12 -24 22 -34 22 -10 0 -26 -10 -34 -22z"/>
<path d="M3636 1324 c-9 -8 -16 -22 -16 -29 0 -7 7 -21 16 -29 30 -30 74 -13
74 29 0 42 -44 59 -74 29z"/>
<path d="M1308 849 c-36 -21 -16 -79 27 -79 42 0 59 44 29 74 -18 18 -32 20
-56 5z"/>
<path d="M1766 838 c-13 -19 -14 -25 -2 -43 19 -29 62 -32 76 -5 9 17 8 26 -5
46 -19 30 -49 31 -69 2z"/>
<path d="M2235 840 c-37 -41 24 -97 63 -58 18 18 14 56 -7 68 -27 14 -35 13
-56 -10z"/>
<path d="M2708 849 c-36 -21 -16 -79 27 -79 42 0 59 44 29 74 -18 18 -32 20
-56 5z"/>
<path d="M3166 838 c-13 -19 -14 -25 -2 -43 19 -29 62 -32 76 -5 9 17 8 26 -5
46 -19 30 -49 31 -69 2z"/>
<path d="M3636 844 c-30 -30 -13 -74 29 -74 44 0 63 60 26 80 -27 14 -37 13
-55 -6z"/>
<path d="M1318 373 c-10 -3 -21 -16 -25 -30 -4 -20 -1 -31 17 -45 20 -16 25
-17 44 -5 41 28 12 91 -36 80z"/>
<path d="M1776 367 c-12 -9 -17 -23 -14 -42 2 -25 8 -31 33 -33 19 -3 33 2 42
14 17 24 17 30 -7 54 -24 24 -30 24 -54 7z"/>
<path d="M2239 361 c-21 -16 -22 -22 -11 -45 13 -28 49 -35 70 -14 18 18 14
56 -7 68 -25 13 -25 13 -52 -9z"/>
<path d="M2708 369 c-36 -21 -16 -79 27 -79 46 0 60 48 23 74 -26 19 -27 19
-50 5z"/>
<path d="M3176 367 c-12 -9 -17 -23 -14 -42 2 -25 8 -31 33 -33 19 -3 33 2 42
14 17 24 17 30 -7 54 -24 24 -30 24 -54 7z"/>
<path d="M3642 364 c-37 -26 -23 -74 23 -74 44 0 63 60 26 80 -25 13 -22 13
-49 -6z"/>
</g>
</svg>
