<?xml version="1.0" standalone="no"?>
<!DOCTYPE svg PUBLIC "-//W3C//DTD SVG 20010904//EN"
 "http://www.w3.org/TR/2001/REC-SVG-20010904/DTD/svg10.dtd">
<svg version="1.0" xmlns="http://www.w3.org/2000/svg"
 width="500.000000pt" height="500.000000pt" viewBox="0 0 500.000000 500.000000"
 preserveAspectRatio="xMidYMid meet">

<g transform="translate(0.000000,500.000000) scale(0.100000,-0.100000)"
fill="#000000" stroke="none">
<path d="M2104 4381 c-20 -12 -37 -34 -45 -58 -19 -55 -14 -168 11 -264 34
-126 36 -119 -45 -140 -263 -66 -369 -179 -271 -287 50 -55 197 -121 309 -139
44 -7 43 4 7 -128 -29 -105 -31 -226 -6 -278 21 -42 60 -67 104 -67 53 0 149
58 243 148 l90 85 52 -55 c73 -76 134 -123 201 -154 167 -76 239 64 171 332
-30 118 -30 114 -5 114 38 0 205 59 260 92 183 110 103 255 -181 329 -46 12
-88 25 -92 29 -4 4 4 51 18 104 30 118 34 239 9 292 -53 112 -195 73 -368 -98
l-69 -69 -51 54 c-70 74 -132 121 -196 151 -66 31 -104 32 -146 7z m167 -63
c63 -40 150 -118 178 -157 l20 -27 -60 -82 c-66 -88 -63 -87 -190 -98 l-77 -6
-11 33 c-26 82 -41 170 -41 247 0 76 2 85 26 109 34 34 82 28 155 -19z m609
22 c11 -11 22 -31 26 -45 11 -44 -2 -176 -26 -264 l-23 -83 -76 7 c-144 12
-127 0 -246 172 -8 12 10 33 78 98 128 122 220 162 267 115z m-332 -299 c23
-32 42 -61 42 -65 0 -3 -41 -6 -91 -6 -54 0 -89 4 -87 10 5 15 82 120 88 120
3 0 24 -27 48 -59z m-259 -168 c-18 -32 -40 -70 -49 -86 l-17 -28 -32 72 c-18
39 -31 73 -29 75 2 1 37 7 78 12 41 5 76 10 78 11 2 0 -11 -25 -29 -56z m383
-20 c25 -43 53 -93 63 -111 l16 -34 -62 -109 -62 -109 -127 0 -126 0 -46 78
c-26 42 -54 93 -64 113 -18 40 -22 31 73 192 l34 57 128 0 127 0 46 -77z m130
59 l37 -7 -30 -70 c-17 -38 -31 -71 -33 -72 -2 -2 -24 33 -48 77 l-46 80 42
-1 c22 0 58 -3 78 -7z m-642 -108 l39 -91 -42 -96 c-48 -111 -34 -107 -192
-55 -230 75 -270 169 -107 256 57 31 223 83 250 79 7 -1 31 -43 52 -93z m813
75 c94 -24 191 -67 230 -103 80 -74 15 -156 -171 -215 -156 -49 -146 -52 -193
58 l-41 94 31 66 c16 36 35 78 40 94 6 15 13 27 17 27 3 0 42 -9 87 -21z
m-697 -305 l44 -77 -77 7 c-42 3 -78 8 -80 10 -2 2 10 36 28 75 18 39 34 69
36 67 3 -2 24 -39 49 -82z m554 -46 c0 -13 -13 -18 -64 -23 -36 -4 -69 -6 -74
-4 -5 2 11 40 36 83 l47 79 27 -59 c15 -32 27 -67 28 -76z m-561 -67 c61 -7
87 -14 93 -26 5 -9 32 -45 59 -81 l49 -65 -32 -41 c-47 -58 -168 -153 -223
-174 -55 -21 -93 -12 -112 26 -19 37 -15 164 7 258 24 101 34 121 57 116 10
-2 56 -8 102 -13z m616 -95 c42 -166 30 -287 -31 -302 -61 -16 -230 94 -305
198 l-20 27 58 80 c45 62 64 81 88 85 74 13 171 21 178 16 4 -3 18 -50 32
-104z m-295 78 c0 -3 -21 -32 -46 -65 l-46 -60 -44 58 c-24 32 -44 61 -44 66
0 4 41 7 90 7 50 0 90 -3 90 -6z"/>
<path d="M2462 3785 c-83 -36 -55 -155 36 -155 39 0 72 24 85 62 11 32 -14 79
-49 94 -39 16 -31 17 -72 -1z"/>
<path d="M1040 2673 c-75 -40 -102 -86 -98 -168 4 -73 31 -116 91 -147 88 -45
201 -17 253 62 78 118 7 262 -137 277 -46 4 -62 1 -109 -24z m170 -30 c74 -71
78 -189 9 -258 -25 -25 -37 -30 -78 -30 -61 0 -97 24 -128 85 -27 52 -29 104
-6 161 20 51 63 79 121 79 36 0 49 -6 82 -37z"/>
<path d="M1497 2685 c-98 -34 -145 -149 -103 -248 27 -66 120 -116 189 -102
108 22 107 21 107 75 0 39 4 52 22 64 21 15 18 16 -57 15 -51 -1 -69 -4 -50
-8 29 -6 30 -9 33 -63 3 -56 3 -56 -28 -63 -127 -28 -220 112 -161 241 25 54
64 84 112 84 53 0 85 -17 104 -56 9 -19 18 -34 20 -34 3 0 5 19 5 43 l0 44
-64 11 c-77 15 -81 15 -129 -3z"/>
<path d="M1866 2578 c-66 -194 -75 -215 -99 -226 -18 -9 -9 -11 48 -10 39 0
61 2 50 5 -36 9 -39 20 -20 83 l18 60 53 0 c53 0 54 -1 70 -37 8 -21 18 -50
21 -65 5 -24 1 -28 -28 -37 -29 -8 -21 -9 51 -10 78 0 83 1 60 14 -20 11 -36
45 -81 172 -50 140 -59 158 -80 161 -22 2 -27 -6 -63 -110z m68 19 c32 -77 31
-77 -13 -77 -23 0 -41 4 -41 8 0 13 31 102 36 102 2 0 10 -15 18 -33z"/>
<path d="M2140 2677 c25 -13 25 -13 25 -162 0 -149 0 -149 -25 -162 -22 -11
-15 -13 60 -12 70 1 79 2 53 10 l-33 10 0 69 0 70 30 0 c25 0 36 -10 79 -74
36 -53 59 -77 82 -85 35 -12 54 -5 27 10 -9 5 -38 43 -63 84 l-47 74 28 24
c41 36 39 90 -4 128 -31 28 -36 29 -135 29 -89 0 -99 -2 -77 -13z m172 -27
c26 -27 30 -36 25 -67 -8 -48 -25 -63 -76 -70 l-41 -6 0 87 0 86 31 0 c21 0
40 -10 61 -30z"/>
<path d="M2498 2678 c21 -11 22 -15 22 -159 0 -141 -1 -149 -22 -163 -21 -15
-19 -16 47 -16 69 1 70 1 38 15 l-33 14 0 131 c0 71 2 130 3 130 2 0 62 -65
133 -145 71 -79 135 -145 142 -145 9 0 12 39 12 163 0 160 1 164 23 175 18 9
9 11 -48 10 -38 0 -60 -3 -47 -5 34 -7 43 -43 40 -156 l-3 -101 -119 132 -120
132 -45 -1 c-41 0 -43 -2 -23 -11z"/>
<path d="M2933 2679 c15 -9 17 -28 17 -164 0 -136 -2 -155 -17 -164 -14 -8 -2
-10 47 -11 61 0 63 1 42 16 -21 14 -22 22 -22 159 0 137 1 145 22 159 21 15
19 16 -42 16 -49 -1 -61 -3 -47 -11z"/>
<path d="M3111 2648 c0 -35 2 -39 9 -21 5 12 18 26 29 32 19 11 171 16 171 6
0 -2 -52 -71 -115 -152 -63 -82 -115 -154 -115 -160 0 -10 38 -13 155 -13
l155 0 -1 53 c-1 47 -2 49 -10 22 -5 -16 -16 -36 -26 -42 -19 -15 -189 -18
-197 -4 -3 4 46 75 109 156 63 82 115 152 115 157 0 4 -63 8 -140 8 l-140 0 1
-42z"/>
<path d="M3473 2674 l27 -15 0 -143 c0 -152 -2 -160 -50 -169 -14 -2 39 -5
116 -6 l141 -1 7 41 c8 52 3 59 -14 19 -14 -34 -37 -43 -101 -38 l-44 3 -3 73
-3 72 50 0 c45 0 52 -3 65 -27 15 -28 15 -27 16 32 0 57 -1 58 -16 37 -12 -18
-25 -22 -65 -22 l-49 0 0 70 0 70 46 0 c55 0 84 -14 84 -40 0 -11 3 -20 8 -20
4 0 6 18 4 40 l-4 40 -122 0 c-113 -1 -119 -2 -93 -16z"/>
<path d="M3770 2677 c25 -13 25 -13 25 -162 0 -149 0 -149 -25 -162 -22 -11
-15 -13 60 -12 70 1 79 2 53 10 l-33 10 0 69 0 70 30 0 c25 0 36 -10 79 -74
36 -53 59 -77 82 -85 35 -12 54 -5 27 10 -9 5 -38 43 -63 84 l-47 74 28 24
c41 36 39 90 -4 128 -31 28 -36 29 -135 29 -89 0 -99 -2 -77 -13z m172 -27
c26 -27 30 -36 25 -67 -8 -48 -25 -63 -76 -70 l-41 -6 0 87 0 86 31 0 c21 0
40 -10 61 -30z"/>
</g>
</svg>
