<?xml version="1.0" standalone="no"?>
<!DOCTYPE svg PUBLIC "-//W3C//DTD SVG 20010904//EN"
 "http://www.w3.org/TR/2001/REC-SVG-20010904/DTD/svg10.dtd">
<svg version="1.0" xmlns="http://www.w3.org/2000/svg"
 width="500.000000pt" height="500.000000pt" viewBox="0 0 500.000000 500.000000"
 preserveAspectRatio="xMidYMid meet">

<g transform="translate(0.000000,500.000000) scale(0.100000,-0.100000)"
fill="#000000" stroke="none">
<path d="M0 2500 l0 -2500 2500 0 2500 0 0 2500 0 2500 -2500 0 -2500 0 0
-2500z m2286 1339 c31 -19 92 -68 135 -109 l77 -75 85 81 c145 139 265 180
328 113 15 -17 31 -46 35 -66 12 -62 -3 -204 -29 -285 l-24 -76 85 -22 c278
-69 380 -205 236 -315 -47 -36 -149 -78 -241 -100 -40 -10 -73 -21 -73 -24 0
-4 11 -51 25 -105 27 -105 33 -224 14 -273 -20 -54 -48 -73 -104 -73 -74 0
-141 38 -246 137 l-89 85 -89 -84 c-106 -100 -175 -138 -247 -138 -53 0 -76
15 -105 70 -21 41 -14 172 15 285 14 55 26 100 26 101 0 0 -26 7 -57 13 -144
32 -277 101 -308 160 -53 104 42 196 266 256 51 13 93 26 95 28 3 2 -8 49 -22
103 -46 171 -36 293 28 339 37 26 115 15 184 -26z m-1079 -1974 c99 -41 138
-143 94 -241 -36 -79 -136 -127 -217 -105 -92 25 -144 88 -144 174 0 135 140
225 267 172z m425 3 l58 -12 0 -44 c0 -26 -4 -41 -10 -37 -5 3 -10 12 -10 20
0 7 -14 25 -32 40 -28 23 -39 27 -80 23 -56 -6 -83 -27 -109 -83 -59 -127 35
-268 161 -240 31 7 31 7 28 63 -3 54 -4 57 -33 63 -19 4 -1 7 50 8 75 1 78 0
57 -15 -18 -12 -22 -25 -22 -64 0 -46 -2 -49 -32 -59 -94 -29 -162 -21 -218
25 -43 36 -60 75 -60 133 0 87 31 138 105 172 47 22 69 23 147 7z m355 -98
c67 -190 83 -227 106 -238 17 -8 4 -11 -63 -10 -70 0 -79 2 -52 9 37 11 38 17
13 84 l-19 50 -54 3 -54 3 -17 -54 c-22 -70 -22 -74 11 -85 23 -9 16 -10 -43
-11 -57 0 -66 2 -50 11 28 16 28 16 87 186 50 144 54 153 77 150 21 -3 29 -16
58 -98z m363 73 c45 -42 49 -82 12 -124 l-30 -35 42 -67 c23 -37 51 -74 62
-81 29 -21 11 -29 -29 -13 -25 11 -48 35 -81 86 -40 62 -49 71 -76 71 l-30 0
0 -65 c0 -65 1 -66 33 -80 31 -14 29 -14 -53 -14 -75 -1 -82 1 -60 12 25 13
25 13 25 162 0 149 0 149 -25 162 -22 11 -12 13 77 13 98 0 104 -1 133 -27z
m336 -105 l119 -131 3 79 c5 121 -4 161 -36 173 -22 8 -15 9 43 10 57 0 66 -2
48 -11 -22 -11 -23 -15 -23 -175 0 -135 -2 -164 -14 -161 -7 2 -64 59 -126
128 -62 69 -121 134 -131 145 -19 19 -19 17 -19 -113 l0 -133 33 -14 c31 -14
30 -14 -43 -14 -67 -1 -72 1 -50 12 25 12 25 14 28 163 2 148 2 151 -20 162
-20 9 -18 11 23 11 l46 1 119 -132z m336 116 c-21 -14 -22 -22 -22 -159 0
-137 1 -145 22 -159 21 -15 19 -16 -47 -15 -52 0 -64 3 -47 9 21 9 22 13 22
164 0 137 -2 156 -17 165 -14 8 -2 10 47 11 61 0 63 -1 42 -16z m368 7 c0 -5
-39 -60 -88 -122 -48 -63 -100 -131 -116 -152 l-29 -38 109 3 109 3 12 35 12
35 0 -52 1 -53 -160 0 c-88 0 -160 3 -160 6 0 3 52 73 115 154 63 82 115 152
115 155 0 3 -38 5 -84 5 -86 0 -99 -5 -109 -45 -2 -11 -5 1 -6 28 l-1 47 140
0 c77 0 140 -4 140 -9z m300 -15 c0 -13 3 -31 6 -40 3 -9 1 -16 -4 -16 -6 0
-12 10 -14 23 -3 20 -9 22 -65 25 l-63 3 0 -66 0 -65 49 0 c39 0 52 4 64 23
15 21 16 19 16 -38 0 -59 0 -59 -15 -32 -13 24 -20 27 -65 27 l-50 0 3 -72 3
-73 34 -3 c63 -6 98 6 111 39 17 39 22 31 14 -20 l-7 -41 -141 1 c-77 1 -130
4 -116 6 48 9 50 17 50 169 l0 143 -27 15 c-26 14 -20 15 95 16 l122 0 0 -24z
m290 -3 c45 -42 49 -82 12 -124 l-30 -35 42 -67 c23 -37 51 -74 62 -81 29 -21
11 -29 -29 -13 -25 11 -48 35 -81 86 -40 62 -49 71 -76 71 l-30 0 0 -65 c0
-65 1 -66 33 -80 31 -14 29 -14 -53 -14 -75 -1 -82 1 -60 12 25 13 25 13 25
162 0 149 0 149 -25 162 -22 11 -12 13 77 13 98 0 104 -1 133 -27z"/>
<path d="M2110 3813 c-20 -26 -22 -36 -17 -133 3 -69 13 -130 28 -178 l23 -74
55 7 c165 19 144 8 213 103 l62 85 -86 82 c-134 128 -232 166 -278 108z"/>
<path d="M2742 3809 c-66 -38 -215 -178 -208 -196 3 -7 30 -46 61 -87 61 -81
51 -76 201 -92 l61 -6 24 88 c32 117 34 271 5 303 -28 31 -80 27 -144 -10z"/>
<path d="M2452 3524 c-23 -31 -42 -60 -42 -65 0 -5 41 -9 91 -9 54 0 89 4 87
10 -5 15 -83 120 -89 120 -3 0 -24 -25 -47 -56z"/>
<path d="M2231 3399 c-35 -4 -65 -10 -68 -12 -2 -3 10 -37 28 -76 l32 -72 24
43 c13 24 35 62 49 86 16 27 20 42 12 41 -7 -1 -42 -5 -77 -10z"/>
<path d="M2310 3308 c-33 -57 -60 -108 -60 -113 0 -13 97 -184 118 -207 13
-15 33 -18 134 -18 l118 0 33 53 c19 28 48 78 66 109 l32 57 -22 43 c-12 24
-39 73 -61 111 l-40 67 -129 0 -129 0 -60 -102z m225 -38 c30 -11 54 -60 47
-96 -6 -33 -48 -64 -87 -64 -73 0 -107 98 -51 146 30 26 51 29 91 14z"/>
<path d="M2681 3403 c8 -19 93 -162 95 -160 1 1 15 34 32 74 l31 72 -47 6
c-26 3 -62 8 -81 11 -18 3 -32 2 -30 -3z"/>
<path d="M2012 3359 c-145 -39 -252 -109 -252 -165 0 -65 133 -143 316 -182
l40 -9 38 86 c21 47 39 95 39 106 0 36 -71 180 -90 182 -10 1 -51 -7 -91 -18z"/>
<path d="M2871 3357 c-5 -13 -23 -54 -40 -92 l-32 -69 42 -96 41 -97 56 13
c182 42 302 113 302 179 0 55 -93 116 -244 159 -108 32 -114 32 -125 3z"/>
<path d="M2196 3086 c-39 -88 -39 -89 24 -98 103 -16 104 -14 55 70 -24 41
-46 76 -49 79 -3 3 -16 -20 -30 -51z"/>
<path d="M2731 3069 c-24 -41 -46 -78 -49 -83 -6 -10 139 2 150 12 4 4 -8 38
-26 76 l-32 70 -43 -75z"/>
<path d="M2120 2878 c-28 -99 -38 -245 -20 -287 36 -88 153 -46 308 112 l64
64 -62 84 -62 84 -70 7 c-38 3 -85 9 -103 12 l-33 6 -22 -82z"/>
<path d="M2742 2946 l-93 -11 -60 -83 -61 -82 32 -38 c48 -56 149 -140 195
-162 70 -33 89 -34 121 -7 29 25 29 26 28 134 -1 85 -6 124 -25 182 -14 41
-29 75 -34 76 -6 1 -52 -3 -103 -9z"/>
<path d="M2410 2925 c0 -10 82 -115 89 -115 6 0 69 79 85 108 6 9 -14 12 -83
12 -50 0 -91 -2 -91 -5z"/>
<path d="M1058 1845 c-34 -19 -68 -90 -68 -141 0 -48 35 -121 71 -147 33 -24
97 -31 129 -15 35 19 68 72 76 124 8 56 -14 119 -56 159 -35 34 -110 44 -152
20z"/>
<path d="M1897 1761 c-9 -27 -17 -51 -17 -55 0 -3 18 -6 41 -6 35 0 40 3 34
18 -4 9 -12 31 -17 47 -17 48 -22 47 -41 -4z"/>
<path d="M2220 1774 l0 -87 41 6 c55 7 74 27 74 78 0 33 -6 46 -28 65 -16 14
-41 24 -58 24 l-29 0 0 -86z"/>
<path d="M3850 1774 l0 -87 41 6 c55 7 74 27 74 78 0 33 -6 46 -28 65 -16 14
-41 24 -58 24 l-29 0 0 -86z"/>
</g>
</svg>
