<?xml version="1.0" standalone="no"?>
<!DOCTYPE svg PUBLIC "-//W3C//DTD SVG 20010904//EN"
 "http://www.w3.org/TR/2001/REC-SVG-20010904/DTD/svg10.dtd">
<svg version="1.0" xmlns="http://www.w3.org/2000/svg"
 width="500.000000pt" height="500.000000pt" viewBox="0 0 500.000000 500.000000"
 preserveAspectRatio="xMidYMid meet">

<g transform="translate(0.000000,500.000000) scale(0.100000,-0.100000)"
fill="#000000" stroke="none">
<path d="M2102 3865 c-64 -46 -74 -168 -28 -339 14 -54 25 -101 22 -103 -2 -2
-44 -15 -95 -28 -224 -60 -319 -152 -266 -256 31 -59 164 -128 308 -160 31 -6
57 -13 57 -13 0 -1 -12 -46 -26 -101 -29 -113 -36 -244 -15 -285 29 -55 52
-70 105 -70 72 0 141 38 247 138 l89 84 89 -85 c105 -99 172 -137 246 -137 56
0 84 19 104 73 19 49 13 168 -14 273 -14 54 -25 101 -25 105 0 3 33 14 73 24
92 22 194 64 241 100 144 110 42 246 -236 315 l-85 22 24 76 c26 81 41 223 29
285 -4 20 -20 49 -35 66 -63 67 -183 26 -328 -113 l-85 -81 -77 75 c-100 96
-176 142 -244 147 -37 3 -58 0 -75 -12z m147 -51 c29 -15 92 -64 139 -109 l86
-82 -62 -85 c-69 -95 -48 -84 -213 -103 l-55 -7 -23 74 c-15 48 -25 109 -28
178 -5 97 -3 107 17 133 28 35 69 36 139 1z m637 5 c29 -32 27 -186 -5 -303
l-24 -88 -61 6 c-150 16 -140 11 -201 92 -31 41 -58 80 -61 87 -7 18 142 158
208 196 64 37 116 41 144 10z m-341 -294 c22 -31 42 -60 43 -65 2 -6 -33 -10
-87 -10 -50 0 -91 4 -91 9 0 11 81 121 89 121 3 0 24 -25 46 -55z m-249 -157
c-14 -24 -36 -62 -49 -86 l-24 -43 -32 72 c-18 39 -30 73 -28 76 4 3 90 16
145 22 8 1 4 -14 -12 -41z m372 -25 c22 -38 49 -87 61 -111 l22 -43 -32 -57
c-18 -31 -47 -81 -66 -109 l-33 -53 -118 0 c-101 0 -121 3 -134 18 -21 23
-118 194 -118 207 0 5 27 56 60 113 l60 102 129 0 129 0 40 -67z m124 52 l47
-6 -31 -72 c-17 -40 -31 -73 -32 -74 -2 -2 -87 141 -95 160 -2 5 12 6 30 3 19
-3 55 -8 81 -11z m-635 -100 c20 -44 36 -89 36 -100 0 -11 -18 -59 -39 -106
l-38 -86 -40 9 c-130 28 -250 81 -290 128 -50 60 -25 110 84 165 70 35 201 76
233 72 12 -1 30 -29 54 -82z m839 59 c151 -43 244 -104 244 -159 0 -66 -120
-137 -302 -179 l-56 -13 -41 97 -42 96 32 69 c17 38 35 79 40 92 11 29 17 29
125 -3z m-721 -296 c49 -84 48 -86 -55 -70 -43 6 -54 11 -52 24 5 28 53 131
58 125 3 -3 25 -38 49 -79z m557 -60 c-11 -10 -156 -22 -150 -12 3 5 25 42 49
83 l43 75 32 -70 c18 -38 30 -72 26 -76z m-554 -56 l70 -7 62 -84 62 -84 -64
-64 c-155 -158 -272 -200 -308 -112 -18 42 -8 188 20 287 l22 82 33 -6 c18 -3
65 -9 103 -12z m601 -63 c19 -58 24 -97 25 -182 1 -108 1 -109 -28 -134 -32
-27 -51 -26 -121 7 -46 22 -147 106 -195 162 l-32 38 61 82 60 83 93 11 c51 6
97 10 103 9 5 -1 20 -35 34 -76z m-295 39 c-16 -29 -79 -108 -85 -108 -7 0
-89 105 -89 115 0 3 41 5 91 5 69 0 89 -3 83 -12z"/>
<path d="M2444 3256 c-82 -70 23 -193 108 -126 64 50 22 150 -62 150 -10 0
-31 -11 -46 -24z"/>
<path d="M1040 1853 c-75 -40 -102 -86 -98 -168 4 -73 31 -116 91 -147 88 -45
201 -17 253 62 78 118 7 262 -137 277 -46 4 -62 1 -109 -24z m170 -30 c74 -71
78 -189 9 -258 -25 -25 -37 -30 -78 -30 -61 0 -97 24 -128 85 -27 52 -29 104
-6 161 20 51 63 79 121 79 36 0 49 -6 82 -37z"/>
<path d="M1497 1865 c-98 -34 -145 -149 -103 -248 27 -66 120 -116 189 -102
108 22 107 21 107 75 0 39 4 52 22 64 21 15 18 16 -57 15 -51 -1 -69 -4 -50
-8 29 -6 30 -9 33 -63 3 -56 3 -56 -28 -63 -127 -28 -220 112 -161 241 25 54
64 84 112 84 53 0 85 -17 104 -56 9 -19 18 -34 20 -34 3 0 5 19 5 43 l0 44
-64 11 c-77 15 -81 15 -129 -3z"/>
<path d="M1866 1758 c-66 -194 -75 -215 -99 -226 -18 -9 -9 -11 48 -10 39 0
61 2 50 5 -36 9 -39 20 -20 83 l18 60 53 0 c53 0 54 -1 70 -37 8 -21 18 -50
21 -65 5 -24 1 -28 -28 -37 -29 -8 -21 -9 51 -10 78 0 83 1 60 14 -20 11 -36
45 -81 172 -50 140 -59 158 -80 161 -22 2 -27 -6 -63 -110z m68 19 c32 -77 31
-77 -13 -77 -23 0 -41 4 -41 8 0 13 31 102 36 102 2 0 10 -15 18 -33z"/>
<path d="M2140 1857 c25 -13 25 -13 25 -162 0 -149 0 -149 -25 -162 -22 -11
-15 -13 60 -12 70 1 79 2 53 10 l-33 10 0 69 0 70 30 0 c25 0 36 -10 79 -74
36 -53 59 -77 82 -85 35 -12 54 -5 27 10 -9 5 -38 43 -63 84 l-47 74 28 24
c41 36 39 90 -4 128 -31 28 -36 29 -135 29 -89 0 -99 -2 -77 -13z m172 -27
c26 -27 30 -36 25 -67 -8 -48 -25 -63 -76 -70 l-41 -6 0 87 0 86 31 0 c21 0
40 -10 61 -30z"/>
<path d="M2498 1858 c21 -11 22 -15 22 -159 0 -141 -1 -149 -22 -163 -21 -15
-19 -16 47 -16 69 1 70 1 38 15 l-33 14 0 131 c0 71 2 130 3 130 2 0 62 -65
133 -145 71 -79 135 -145 142 -145 9 0 12 39 12 163 0 160 1 164 23 175 18 9
9 11 -48 10 -38 0 -60 -3 -47 -5 34 -7 43 -43 40 -156 l-3 -101 -119 132 -120
132 -45 -1 c-41 0 -43 -2 -23 -11z"/>
<path d="M2933 1859 c15 -9 17 -28 17 -164 0 -136 -2 -155 -17 -164 -14 -8 -2
-10 47 -11 61 0 63 1 42 16 -21 14 -22 22 -22 159 0 137 1 145 22 159 21 15
19 16 -42 16 -49 -1 -61 -3 -47 -11z"/>
<path d="M3111 1828 c0 -35 2 -39 9 -21 5 12 18 26 29 32 19 11 171 16 171 6
0 -2 -52 -71 -115 -152 -63 -82 -115 -154 -115 -160 0 -10 38 -13 155 -13
l155 0 -1 53 c-1 47 -2 49 -10 22 -5 -16 -16 -36 -26 -42 -19 -15 -189 -18
-197 -4 -3 4 46 75 109 156 63 82 115 152 115 157 0 4 -63 8 -140 8 l-140 0 1
-42z"/>
<path d="M3473 1854 l27 -15 0 -143 c0 -152 -2 -160 -50 -169 -14 -2 39 -5
116 -6 l141 -1 7 41 c8 52 3 59 -14 19 -14 -34 -37 -43 -101 -38 l-44 3 -3 73
-3 72 50 0 c45 0 52 -3 65 -27 15 -28 15 -27 16 32 0 57 -1 58 -16 37 -12 -18
-25 -22 -65 -22 l-49 0 0 70 0 70 46 0 c55 0 84 -14 84 -40 0 -11 3 -20 8 -20
4 0 6 18 4 40 l-4 40 -122 0 c-113 -1 -119 -2 -93 -16z"/>
<path d="M3770 1857 c25 -13 25 -13 25 -162 0 -149 0 -149 -25 -162 -22 -11
-15 -13 60 -12 70 1 79 2 53 10 l-33 10 0 69 0 70 30 0 c25 0 36 -10 79 -74
36 -53 59 -77 82 -85 35 -12 54 -5 27 10 -9 5 -38 43 -63 84 l-47 74 28 24
c41 36 39 90 -4 128 -31 28 -36 29 -135 29 -89 0 -99 -2 -77 -13z m172 -27
c26 -27 30 -36 25 -67 -8 -48 -25 -63 -76 -70 l-41 -6 0 87 0 86 31 0 c21 0
40 -10 61 -30z"/>
</g>
</svg>
